<?xml version="1.0" encoding="utf-8"?>
<!-- Generator: Adobe Illustrator 22.0.0, SVG Export Plug-In . SVG Version: 6.00 Build 0)  -->
<svg version="1.1" id="Layer_1" xmlns="http://www.w3.org/2000/svg" xmlns:xlink="http://www.w3.org/1999/xlink" x="0px" y="0px"
	 viewBox="0 0 430 430" style="enable-background:new 0 0 430 430;" xml:space="preserve">
<style type="text/css">
	.st0{fill:#FFFFFF;}
</style>
<path class="st0" d="M189.5,324.4c-2.9,0-5.2-2.3-5.2-5.2v-11.7c0-2.9,2.3-5.2,5.2-5.2s5.2,2.3,5.2,5.2v11.7
	C194.7,322.1,192.4,324.4,189.5,324.4z"/>
<path class="st0" d="M241,324.4c-2.9,0-5.2-2.3-5.2-5.2v-11.7c0-2.9,2.3-5.2,5.2-5.2c2.9,0,5.2,2.3,5.2,5.2v11.7
	C246.2,322.1,243.9,324.4,241,324.4z"/>
<g>
	<line class="st0" x1="180.4" y1="220.3" x2="180.4" y2="220.4"/>
	<path class="st0" d="M180.4,225.6c-2.9,0-5.2-2.3-5.2-5.2c0-2.9,2.3-5.2,5.2-5.2c2.9,0,5.2,2.3,5.2,5.2l0,0
		C185.6,223.3,183.2,225.6,180.4,225.6z"/>
</g>
<g>
	<line class="st0" x1="250.2" y1="220.3" x2="250.2" y2="220.4"/>
	<path class="st0" d="M250.2,225.6c-2.9,0-5.2-2.3-5.2-5.2c0-2.9,2.3-5.2,5.2-5.2s5.2,2.3,5.2,5.2l0,0
		C255.4,223.3,253,225.6,250.2,225.6z"/>
</g>
<path class="st0" d="M260.3,194.7c-6.1,0-11-1.6-14.7-3.5c-6.1-3.1-8.4-8-10.5-12.3c-1.9-3.9-3.7-7.7-8.5-11.5
	c-6.3-5-12.5-5.8-18.5-6.8c-6.4-1-13.1-1.9-17.5-8.3c-5.1-7.6-4.1-18.5,3.4-33.6c1.3-2.6,4.4-3.7,7-2.3c2.6,1.3,3.7,4.4,2.3,7
	c-5.4,10.9-6.9,19.1-4.1,23.1c1.7,2.4,4.7,3,10.4,3.8c6.7,1,15.1,2.2,23.5,8.9c6.7,5.2,9.3,10.7,11.5,15.1c2,4.1,3,6.1,5.9,7.6
	c9.1,4.7,20.7,2.4,34.8-6.7c2.4-1.6,5.7-0.9,7.2,1.6c1.6,2.4,0.9,5.7-1.6,7.2C278.4,192,268.3,194.7,260.3,194.7z"/>
<path class="st0" d="M145.5,176.1c-1.2,0-2.4-0.4-3.5-1.3c-15.4-13.5-24.3-33-24.3-53.5c0-18.3,7-35.7,19.6-48.9
	c1.4-1.5,3.6-2,5.5-1.3c1.9,0.7,3.3,2.3,3.5,4.4c2.3,21.1,13.6,40,31.1,52c2.3,1.7,3,4.9,1.3,7.2c-1.7,2.3-4.9,3-7.2,1.3
	c-16.7-11.5-28.5-28.5-33.4-47.9c-6.4,9.7-9.8,21.1-9.8,33.1c0,17.5,7.6,34.1,20.7,45.6c2.2,1.9,2.3,5.2,0.5,7.4
	C148.4,175.5,146.9,176.1,145.5,176.1z"/>
<path class="st0" d="M284.8,176.2c-1.5,0-2.9-0.6-3.9-1.8c-1.9-2.2-1.7-5.5,0.5-7.4c13.2-11.6,20.8-28.2,20.8-45.7
	c0-11.8-3.4-23.3-9.7-33.1c-5,19.3-16.7,36.4-33.5,47.9c-2.3,1.7-5.7,1-7.2-1.3c-1.7-2.3-1-5.7,1.3-7.2
	c17.6-12.1,28.9-31.1,31.2-52.1c0.2-2,1.6-3.7,3.5-4.4c1.9-0.7,4.1-0.1,5.5,1.3c12.6,13.2,19.5,30.6,19.5,48.9
	c0,20.5-8.9,40-24.4,53.6C287.2,175.8,286,176.2,284.8,176.2z"/>
<path class="st0" d="M128.1,234c-7,0-14.1-1.3-20.8-3.8c-8.8-3.3-16.8-8.8-23-15.8c-7.2-8.1-9.3-19.4-5.4-29.6
	c3.8-10.2,13-17.3,23.7-18.6c9.3-1.1,18.9,0.1,27.7,3.4c5.8,2.3,11.2,5.3,16,9.2c2.3,1.8,2.6,5.1,0.8,7.3c-1.8,2.3-5.1,2.6-7.3,0.8
	c-3.9-3.1-8.4-5.7-13.2-7.6c-7.3-2.8-15.1-3.7-22.8-2.8c-7,0.9-12.6,5.3-15.1,11.9c-2.5,6.6-1.2,13.8,3.5,19
	c5.2,5.8,11.6,10.2,18.9,13c10.4,3.9,21.5,4.2,32.1,0.7c2.7-0.9,5.7,0.6,6.6,3.3c0.9,2.7-0.6,5.7-3.3,6.6
	C140.3,232.9,134.2,234,128.1,234z"/>
<path class="st0" d="M143.1,213.2c-0.5,0-1.1-0.1-1.7-0.3l-15-5c-2.7-0.9-4.2-3.8-3.3-6.6c0.9-2.7,3.8-4.2,6.6-3.3l15,5
	c2.7,0.9,4.2,3.8,3.3,6.6C147.4,211.8,145.4,213.2,143.1,213.2z"/>
<path class="st0" d="M301.9,234c-6.1,0-12.1-1-17.9-2.8c-2.8-0.9-4.3-3.8-3.4-6.5c0.9-2.8,3.8-4.3,6.5-3.4c10.5,3.4,21.5,3,31.9-0.8
	c7.2-2.8,13.8-7.2,18.9-13c4.7-5.2,6-12.4,3.5-19c-2.5-6.6-8.2-11.1-15.1-11.9c-7.7-0.9-15.5,0.1-22.8,2.8c-4.7,1.7-9.1,4.3-13,7.3
	c-2.3,1.8-5.6,1.4-7.3-0.9c-1.8-2.3-1.4-5.6,0.9-7.3c4.8-3.7,10-6.8,15.8-9c8.8-3.3,18.4-4.5,27.7-3.4c10.8,1.3,19.8,8.4,23.7,18.6
	c3.8,10.2,1.7,21.5-5.4,29.6c-6.2,7-14.2,12.4-23,15.8C316.1,232.7,309.1,234,301.9,234z"/>
<path class="st0" d="M287.1,212.9c-2.2,0-4.2-1.4-5-3.6c-1-2.7,0.5-5.7,3.2-6.6l14-4.8c2.7-1,5.7,0.5,6.6,3.2s-0.5,5.7-3.2,6.6
	l-14,4.8C288.3,212.8,287.8,212.9,287.1,212.9z"/>
<path class="st0" d="M275.8,287.2c-0.4,0-0.9-0.1-1.3-0.2c-2.8-0.8-4.4-3.6-3.7-6.4c10.4-38.9,11.5-80.2,11.5-80.6
	c0-0.2,0-0.3,0-0.4c0.3-2.5,0.4-5,0.4-7.6c0-37.2-30.3-67.4-67.6-67.4c-19.2,0-37.6,8.2-50.4,22.5c-12.8,14.3-19,33.5-16.8,52.6
	c0,0.2,0,0.3,0,0.4c0,0.4,1.1,41.6,11.5,80.5c0.8,2.8-1,5.7-3.7,6.4c-2.8,0.7-5.7-1-6.4-3.7c-10.4-39-11.7-78.9-11.8-82.7
	c-2.3-21.9,4.7-44,19.4-60.5c14.8-16.5,35.9-26,58.1-26c43,0,78.1,35,78.1,77.9c0,2.9-0.2,5.7-0.4,8.5c-0.1,3.7-1.5,43.8-11.8,82.9
	C280.3,285.8,278.2,287.2,275.8,287.2z"/>
<path class="st0" d="M253.4,359.3h-76.5c-24,0-43.5-21.6-43.5-48.1c0-14.4,6.9-26.5,19.8-34.7c13.9-8.9,34.8-13.4,62-13.4
	c26.9,0,47.7,4.5,61.7,13.4c13.1,8.3,20.1,20.3,20.1,34.7C296.9,337.7,277.4,359.3,253.4,359.3z M215.2,273.6
	c-46,0-71.3,13.4-71.3,37.7c0,20.8,14.8,37.7,33.1,37.7h76.5c18.2,0,33.1-16.9,33.1-37.7c0-10.8-5.1-19.5-15.2-25.9
	C258.9,277.5,240.1,273.6,215.2,273.6z"/>
</svg>
