<?xml version="1.0" encoding="utf-8"?>
<!-- Generator: Adobe Illustrator 22.0.0, SVG Export Plug-In . SVG Version: 6.00 Build 0)  -->
<svg version="1.1" id="Capa_1" focusable="false" xmlns="http://www.w3.org/2000/svg" xmlns:xlink="http://www.w3.org/1999/xlink"
	 x="0px" y="0px" viewBox="0 0 300 240" style="enable-background:new 0 0 300 240;" xml:space="preserve">
<style type="text/css">
	.st0{fill:#FFFFFF;}
</style>
<g>
	<polygon class="st0" points="247.6,86.2 226.1,63.8 235.5,57.8 236,53.1 231.7,52.9 220.4,61 206.3,61 197.7,55.8 194.6,56.4 
		194.7,59.8 200.2,65.9 199.5,69.2 134.2,76.2 66.5,74.3 59.2,77.4 53.8,84.2 51.1,100.2 50.6,111.6 48.9,122.4 49.4,133 
		51.3,133.4 54,130.4 56.2,120.4 54.4,106.5 55.1,106.4 59.3,127.5 56.4,145.9 59,182.5 59.3,186.6 61.9,188.8 73.2,188.8 
		76.9,187.7 66.7,171.1 71.8,150.1 74.4,150.1 83.6,178.1 88.4,185.3 90.7,186.7 103.3,186.7 104.9,184.7 94,178 86.7,155.3 
		88.5,151.7 92.8,152.1 95.5,158.7 99.5,152.2 103.3,158.7 106.5,151.7 116,144.4 149.8,141.1 155.4,148 160.2,181.9 162.7,186.7 
		174.2,186.7 175.4,184.9 168.4,175.2 167.6,156.7 171.4,158.8 175.3,171.1 180.4,187 182.7,188.8 193,188.8 193.8,186.5 
		190.8,183.7 181.1,164.8 183.3,144.9 194.2,136.9 210,107.5 228.2,99.1 245,97.1 246.4,95.6 248.8,89 	"/>
</g>
</svg>
